<svg xmlns="http://www.w3.org/2000/svg" xmlns:xlink="http://www.w3.org/1999/xlink" width="800" height="164" version="1.1" viewBox="0 0 800 164"><title>disable_button</title><desc>Created with Sketch.</desc><g id="disable_button" fill="none" fill-rule="evenodd" stroke="none" stroke-width="1"><rect width="800" height="164" x="0" y="0" fill="#FFF"/><g id="编组-3" opacity=".65" transform="translate(20.000000, 40.000000)"><g id="编组"><rect id="Bg" width="88" height="32" x="0" y="0" fill="#245AE6" rx="4"/><text id="Text" fill="#FFF" font-family="PingFangSC-Regular, PingFang SC" font-size="14" font-weight="normal" line-spacing="22"><tspan x="16" y="20">主要按钮</tspan></text></g><g id="编组-2" transform="translate(0.000000, 52.000000)"><rect id="Bg" width="87" height="31" x=".5" y=".5" fill="#FFF" stroke="#245AE6" rx="4"/><text id="Text" fill="#245AE6" font-family="PingFangSC-Regular, PingFang SC" font-size="14" font-weight="normal" line-spacing="22"><tspan x="16" y="20">主要按钮</tspan></text></g><g id="编组" transform="translate(108.000000, 0.000000)"><rect id="Bg" width="88" height="32" x="0" y="0" fill="#2CBF77" rx="4"/><text id="Text" fill="#FFF" font-family="PingFangSC-Regular, PingFang SC" font-size="14" font-weight="normal" line-spacing="22"><tspan x="16" y="20">成功按钮</tspan></text></g><g id="编组-2" transform="translate(108.000000, 52.000000)"><rect id="Bg" width="87" height="31" x=".5" y=".5" fill="#FFF" stroke="#2CBF77" rx="4"/><text id="Text" fill="#2CBF77" font-family="PingFangSC-Regular, PingFang SC" font-size="14" font-weight="normal" line-spacing="22"><tspan x="16" y="20">成功按钮</tspan></text></g><g id="编组" transform="translate(216.000000, 0.000000)"><rect id="Bg" width="88" height="32" x="0" y="0" fill="#FF4D4F" rx="4"/><text id="Text" fill="#FFF" font-family="PingFangSC-Regular, PingFang SC" font-size="14" font-weight="normal" line-spacing="22"><tspan x="16" y="20">危险按钮</tspan></text></g><g id="编组-2" transform="translate(216.000000, 52.000000)"><rect id="Bg" width="87" height="31" x=".5" y=".5" fill="#FFF" stroke="#FF4D4F" rx="4"/><text id="Text" fill="#FF4D4F" font-family="PingFangSC-Regular, PingFang SC" font-size="14" font-weight="normal" line-spacing="22"><tspan x="16" y="20">成功按钮</tspan></text></g><g id="编组" transform="translate(324.000000, 0.000000)"><rect id="Bg" width="88" height="32" x="0" y="0" fill="#FBAD14" rx="4"/><text id="Text" fill="#FFF" font-family="PingFangSC-Regular, PingFang SC" font-size="14" font-weight="normal" line-spacing="22"><tspan x="16" y="20">警示按钮</tspan></text></g><g id="编组-2" transform="translate(324.000000, 52.000000)"><rect id="Bg" width="87" height="31" x=".5" y=".5" fill="#FFF" stroke="#FBAD14" rx="4"/><text id="Text" fill="#FBAD14" font-family="PingFangSC-Regular, PingFang SC" font-size="14" font-weight="normal" line-spacing="22"><tspan x="16" y="20">警示按钮</tspan></text></g><g id="编组" transform="translate(432.000000, 0.000000)"><rect id="Bg" width="88" height="32" x="0" y="0" fill="#3980EA" rx="4"/><text id="Text" fill="#FFF" font-family="PingFangSC-Regular, PingFang SC" font-size="14" font-weight="normal" line-spacing="22"><tspan x="16" y="20">信息按钮</tspan></text></g><g id="编组-2" transform="translate(432.000000, 52.000000)"><rect id="Bg" width="87" height="31" x=".5" y=".5" fill="#FFF" stroke="#3980EA" rx="4"/><text id="Text" fill="#3980EA" font-family="PingFangSC-Regular, PingFang SC" font-size="14" font-weight="normal" line-spacing="22"><tspan x="16" y="20">信息按钮</tspan></text></g><g id="编组" transform="translate(540.000000, 0.000000)"><rect id="Bg" width="88" height="32" x="0" y="0" fill="#000" fill-opacity=".151" rx="4"/><text id="Text" fill="#333" font-family="PingFangSC-Regular, PingFang SC" font-size="14" font-weight="normal" line-spacing="22"><tspan x="16" y="20">普通按钮</tspan></text></g><g id="编组-2" transform="translate(540.000000, 52.000000)"><rect id="Bg" width="87" height="31" x=".5" y=".5" fill="#EEF2F5" stroke="#D9D9D9" rx="4"/><text id="Text" fill="#333" font-family="PingFangSC-Regular, PingFang SC" font-size="14" font-weight="normal" line-spacing="22"><tspan x="16" y="20">普通按钮</tspan></text></g><g id="编组-2" transform="translate(648.000000, 52.000000)"><rect id="Bg" width="87" height="31" x=".5" y=".5" fill="#FFF" stroke="#D9D9D9" rx="4"/><text id="Text" fill="#333" font-family="PingFangSC-Regular, PingFang SC" font-size="14" font-weight="normal" line-spacing="22"><tspan x="16" y="20">默认按钮</tspan></text></g></g></g></svg>